# xmcd
#
# Track frame offsets:
#	150
#	17077
#	38383
#	53040
#	71964
#	85168
#	107657
#	118897
#	131710
#	143398
#	156423
#	168370
#	187783
#	201108
#
# Disc length: 2905 seconds
#
# Revision: 1
# Processed by: cddbd v1.5.2PL0 Copyright (c) Steve Scherf et al.
# Submitted via: audiograbber 1.83.01
#
DISCID=b80b570e
DTITLE=Various Artist - Golden Pop Hits 5
DYEAR=2007
DGENRE=Oldies
TTITLE0=Gaynor, Gloria - I Will Survive
TTITLE1=Baccara - Yes Sir, I Can Boogie
TTITLE2=McCrea, George - Rock Your Baby
TTITLE3=Four Tops, The - Loco In Acapulco
TTITLE4=Three Degrees, The - When Will I See You Again
TTITLE5=Hopkins, Mary - Those Where The Days
TTITLE6=Lee, Leapy - Little Arrows
TTITLE7=Fred, John and his Playboy Band - Judy In Disguise
TTITLE8=Dion and The Belmonts - A Teenager In Love
TTITLE9=Petterson, Ray - Tell Laura I Love Her
TTITLE10=Shirelles, The - Will You Still Love Me Tomorrow
TTITLE11=Brooks, Elkie - Nights In White Satin
TTITLE12=Boone, Daniel - Beautiful Sunday
TTITLE13=Stylistics, The - I Only Have Eyes For You
EXTD=
EXTT0=
EXTT1=
EXTT2=
EXTT3=
EXTT4=
EXTT5=
EXTT6=
EXTT7=
EXTT8=
EXTT9=
EXTT10=
EXTT11=
EXTT12=
EXTT13=
PLAYORDER=
